<svg xmlns="http://www.w3.org/2000/svg" width="156.089" height="24.616" viewBox="0 0 156.089 24.616">
  <path id="Path_14" data-name="Path 14" d="M333.99,146.445a5.205,5.205,0,0,1-2.346-.476,4.371,4.371,0,0,1-1.632-1.6,14.059,14.059,0,0,1-1.258-3.162l-5.508-18.972h4.794l5.2,18.9q.238.885.748.884t.748-.884l5.2-18.9h4.794l-5.508,18.972a12.91,12.91,0,0,1-1.292,3.162,4.064,4.064,0,0,1-1.632,1.6A4.986,4.986,0,0,1,333.99,146.445Zm14.31-24.208h4.794v23.8H348.3Zm15.523,3.74h-7.174v-3.74h19.142v3.74h-7.174v20.06h-4.794Zm25.633,14.518H380.14l-1.6,5.542h-4.794l5.814-18.972a14.083,14.083,0,0,1,1.292-3.162,4.156,4.156,0,0,1,1.6-1.6,5.219,5.219,0,0,1,2.346-.476,5,5,0,0,1,2.312.476,4.15,4.15,0,0,1,1.6,1.6,12.966,12.966,0,0,1,1.326,3.162l5.814,18.972h-4.794Zm-1.054-3.57-2.856-9.792q-.237-.884-.748-.884t-.748.884l-2.856,9.792Zm17.643,9.112q-4.352,0-6.256-1.9a7.537,7.537,0,0,1-1.87-5.508V122.237h4.794v16.388a4.1,4.1,0,0,0,.816,2.788,3.264,3.264,0,0,0,2.516.884h7.616v3.74Zm20.259.374q-4.726,0-7.208-2.176-2.482-2.21-2.482-6.494V130.5a8.215,8.215,0,0,1,2.448-6.426q2.448-2.209,7.038-2.21a12.245,12.245,0,0,1,5.2.986,8.178,8.178,0,0,1,3.434,3.026l-2.312,1.632a7.474,7.474,0,0,0-2.618-2.346,7.946,7.946,0,0,0-3.638-.748q-6.324,0-6.324,6.086v7.242q0,6.12,6.46,6.12a8.178,8.178,0,0,0,3.808-.782,7.223,7.223,0,0,0,2.618-2.448l2.278,1.734a9.515,9.515,0,0,1-3.57,3.094A11.858,11.858,0,0,1,426.3,146.411Zm26.275-7.31H442.311l-2.108,6.936h-3.23l6.018-19.584a13.346,13.346,0,0,1,1.122-2.754,3.5,3.5,0,0,1,1.36-1.394,3.9,3.9,0,0,1,1.938-.442,3.563,3.563,0,0,1,2.686,1.02,8.784,8.784,0,0,1,1.768,3.57l6.052,19.584h-3.264Zm-.748-2.482-3.06-10.132a3.451,3.451,0,0,0-.578-1.258.967.967,0,0,0-.782-.374.934.934,0,0,0-.748.374,3.952,3.952,0,0,0-.544,1.258l-3.06,10.132Zm10.1-14.382h9.928a7.749,7.749,0,0,1,5.576,1.8,8.435,8.435,0,0,1,0,10.676,7.744,7.744,0,0,1-5.576,1.8h-6.7v9.52h-3.23Zm9.826,11.73a4.247,4.247,0,0,0,3.2-1.19,5.578,5.578,0,0,0,0-6.8,4.251,4.251,0,0,0-3.2-1.19h-6.6v9.18Z" transform="translate(-323.246 -121.829)" fill="#fff"/>
</svg>
